<svg width="24" height="24" viewBox="0 0 24 24" fill="none" xmlns="http://www.w3.org/2000/svg">
<path d="M2 12.97V15C2 20 4 22 9 22H15C20 22 22 20 22 15V9C22 4 20 2 15 2H9C4 2 2 4 2 9" stroke="#292D32" stroke-width="1.5" stroke-linecap="round" stroke-linejoin="round"/>
<path d="M12.0004 16.9434C11.6169 16.9434 11.2495 17.2806 11.2672 17.6765C11.285 18.0737 11.5894 18.4097 12.0004 18.4097C12.3839 18.4097 12.7513 18.0725 12.7335 17.6765C12.7158 17.2793 12.4114 16.9434 12.0004 16.9434Z" fill="#292D32"/>
<path d="M12.0002 5.58984C9.98888 5.58984 8.35254 7.22618 8.35254 9.2375C8.35254 9.64238 8.68081 9.97065 9.0857 9.97065C9.49058 9.97065 9.81885 9.64238 9.81885 9.2375C9.81885 8.03474 10.7974 7.05615 12.0002 7.05615C13.203 7.05615 14.1816 8.03474 14.1816 9.2375C14.1816 10.4403 13.203 11.4188 12.0002 11.4188C11.5953 11.4188 11.2671 11.7471 11.2671 12.152V15.1422C11.2671 15.5471 11.5953 15.8754 12.0002 15.8754C12.4051 15.8754 12.7334 15.5472 12.7334 15.1422V12.8111C14.3945 12.4708 15.6479 10.9978 15.6479 9.2375C15.6479 7.22618 14.0115 5.58984 12.0002 5.58984Z" fill="#292D32"/>
</svg>
